<mxfile host="app.diagrams.net" modified="2023-10-04T08:07:01.279Z" agent="Mozilla/5.0 (X11; Linux x86_64) AppleWebKit/537.36 (KHTML, like Gecko) Chrome/117.0.0.0 Safari/537.36" version="21.6.9" etag="vaLXSHYIvUAqbtfmqDVI" type="github">
  <diagram name="Trang-1" id="PM6XNOmnN-k0I5oB8XaU">
    <mxGraphModel>
      <root>
        <mxCell id="0" />
        <mxCell id="1" parent="0" />
      </root>
    </mxGraphModel>
  </diagram>
</mxfile>
